<svg width="220" height="24" viewBox="0 0 220 24" fill="none" xmlns="http://www.w3.org/2000/svg">
<path d="M0 24V23.5052C0.653723 23.4392 1.20939 23.2412 1.66699 22.9113C2.1246 22.5979 2.47598 22.0536 2.72112 21.2784C2.96627 20.5031 3.08884 19.4144 3.08884 18.0124V4.45361C3.08884 3.8433 3.03981 3.39794 2.94175 3.11753C2.86004 2.82062 2.68844 2.62268 2.42695 2.52371C2.16546 2.40825 1.77322 2.34227 1.25024 2.32577V1.83093C1.65882 1.84742 2.18997 1.86392 2.84369 1.88041C3.51376 1.89691 4.21651 1.90516 4.95195 1.90516C5.68739 1.90516 6.39831 1.89691 7.08472 1.88041C7.78747 1.86392 8.36765 1.84742 8.82526 1.83093V2.32577C8.31862 2.34227 7.92639 2.40825 7.64856 2.52371C7.38707 2.62268 7.20729 2.82062 7.10924 3.11753C7.02752 3.39794 6.98666 3.8433 6.98666 4.45361V13.5093C6.98666 14.1856 6.98666 14.9196 6.98666 15.7113C6.98666 16.4866 6.95398 17.2454 6.8886 17.9876C6.83958 18.7299 6.73335 19.3897 6.56991 19.967C6.24305 21.1052 5.53213 22.0619 4.43714 22.8371C3.3585 23.6124 1.87945 24 0 24Z" fill="#1F1951"/>
<path d="M12.0055 19.5217C11.27 19.5217 10.6572 19.3814 10.1669 19.101C9.67657 18.8206 9.31702 18.4495 9.08822 17.9876C8.85941 17.5093 8.74501 16.9897 8.74501 16.4289C8.74501 15.7196 8.90027 15.1423 9.21079 14.6969C9.53765 14.2515 9.9544 13.8887 10.461 13.6082C10.9677 13.3278 11.4988 13.0969 12.0545 12.9155C12.6265 12.734 13.1658 12.5608 13.6724 12.3959C14.1954 12.2144 14.6122 12.0082 14.9227 11.7773C15.2496 11.5299 15.413 11.2165 15.413 10.8371V8.90722C15.413 8.47835 15.3394 8.09897 15.1924 7.76907C15.0616 7.42268 14.8491 7.15876 14.555 6.97732C14.2771 6.79588 13.9094 6.70515 13.4518 6.70515C13.125 6.70515 12.7981 6.75464 12.4712 6.85361C12.1444 6.93608 11.8747 7.08454 11.6622 7.29897C12.1199 7.46392 12.4712 7.71959 12.7164 8.06598C12.9779 8.39588 13.1086 8.77526 13.1086 9.20412C13.1086 9.76495 12.9125 10.2103 12.5203 10.5402C12.1444 10.8701 11.6949 11.0351 11.172 11.0351C10.5836 11.0351 10.1342 10.8536 9.82365 10.4907C9.52948 10.1113 9.38239 9.65773 9.38239 9.1299C9.38239 8.65155 9.49679 8.25567 9.7256 7.94227C9.97074 7.62887 10.3058 7.33196 10.7307 7.05155C11.1883 6.78763 11.7358 6.58144 12.3732 6.43299C13.0269 6.28454 13.7296 6.21031 14.4814 6.21031C15.2332 6.21031 15.9114 6.29278 16.5161 6.45773C17.1208 6.60619 17.6275 6.8866 18.036 7.29897C18.4119 7.67835 18.6571 8.14845 18.7715 8.70928C18.8859 9.25361 18.9431 9.94639 18.9431 10.7876V17.5175C18.9431 17.9299 18.9839 18.2186 19.0657 18.3835C19.1474 18.532 19.2863 18.6062 19.4824 18.6062C19.6295 18.6062 19.7684 18.5649 19.8992 18.4825C20.0462 18.4 20.2015 18.301 20.3649 18.1856L20.6101 18.6062C20.2669 18.9031 19.8665 19.134 19.4089 19.299C18.9676 19.4474 18.4691 19.5217 17.9135 19.5217C17.3088 19.5217 16.8267 19.4392 16.4671 19.2742C16.1076 19.0928 15.8461 18.8536 15.6826 18.5567C15.5356 18.2598 15.462 17.9134 15.462 17.5175C15.0698 18.1443 14.5958 18.6392 14.0402 19.0021C13.4845 19.3485 12.8063 19.5217 12.0055 19.5217ZM13.746 17.9381C14.0729 17.9381 14.367 17.8639 14.6285 17.7155C14.9063 17.5505 15.1678 17.2866 15.413 16.9237V11.8515C15.2659 12.099 15.0616 12.3216 14.8001 12.5196C14.5386 12.7175 14.2608 12.9237 13.9666 13.1381C13.6724 13.3361 13.3864 13.5588 13.1086 13.8062C12.8471 14.0536 12.6347 14.3588 12.4712 14.7217C12.3078 15.0845 12.2261 15.5216 12.2261 16.033C12.2261 16.6763 12.365 17.1546 12.6428 17.468C12.9207 17.7814 13.2884 17.9381 13.746 17.9381Z" fill="#1F1951"/>
<path d="M23.517 0.173197C24.2034 0.173197 24.7427 0.346393 25.1349 0.692785C25.5435 1.02268 25.7478 1.48454 25.7478 2.07835C25.7478 2.67217 25.5435 3.14227 25.1349 3.48866C24.7427 3.81856 24.2034 3.98351 23.517 3.98351C22.8306 3.98351 22.2831 3.81856 21.8745 3.48866C21.4823 3.14227 21.2861 2.67217 21.2861 2.07835C21.2861 1.48454 21.4823 1.02268 21.8745 0.692785C22.2831 0.346393 22.8306 0.173197 23.517 0.173197ZM25.4291 6.28454V17.0474C25.4291 17.7402 25.5435 18.2103 25.7723 18.4577C26.0175 18.7052 26.426 18.8289 26.9981 18.8289V19.3485C26.7039 19.332 26.2463 19.3155 25.6252 19.299C25.0042 19.266 24.375 19.2495 23.7376 19.2495C23.1002 19.2495 22.4547 19.266 21.801 19.299C21.1472 19.3155 20.6569 19.332 20.3301 19.3485V18.8289C20.9021 18.8289 21.3025 18.7052 21.5313 18.4577C21.7764 18.2103 21.899 17.7402 21.899 17.0474V9.25361C21.899 8.51134 21.7846 7.96701 21.5558 7.62062C21.3433 7.25773 20.9348 7.07629 20.3301 7.07629V6.5567C20.8531 6.60619 21.3597 6.63093 21.85 6.63093C22.5364 6.63093 23.1738 6.60619 23.7621 6.5567C24.3668 6.49072 24.9225 6.4 25.4291 6.28454Z" fill="#1F1951"/>
<path d="M32.0831 6.28454V21.3773C32.0831 22.1526 32.2792 22.6639 32.6715 22.9113C33.0637 23.1753 33.603 23.3072 34.2894 23.3072V23.8268C33.8645 23.8103 33.2761 23.7856 32.5244 23.7526C31.7889 23.7361 31.0045 23.7278 30.171 23.7278C29.5663 23.7278 28.9698 23.7361 28.3814 23.7526C27.8094 23.7856 27.3763 23.8103 27.0821 23.8268V23.3072C27.6214 23.3072 27.9973 23.1918 28.2098 22.9608C28.4386 22.7299 28.553 22.2845 28.553 21.6247V9.25361C28.553 8.51134 28.4386 7.96701 28.2098 7.62062C27.981 7.25773 27.5724 7.07629 26.9841 7.07629V6.5567C27.507 6.60619 28.0137 6.63093 28.504 6.63093C29.174 6.63093 29.8114 6.60619 30.4161 6.5567C31.0208 6.49072 31.5765 6.4 32.0831 6.28454ZM35.8829 6.21031C36.7164 6.21031 37.46 6.44124 38.1137 6.90309C38.7674 7.34845 39.2904 8.03299 39.6826 8.9567C40.0749 9.86392 40.271 11.0021 40.271 12.3711C40.271 13.5753 40.1321 14.6309 39.8542 15.5381C39.5928 16.4454 39.2087 17.2124 38.702 17.8392C38.2118 18.4495 37.6152 18.9113 36.9125 19.2247C36.2261 19.5381 35.4498 19.6948 34.5836 19.6948C33.9462 19.6948 33.366 19.5794 32.8431 19.3485C32.3201 19.134 31.9197 18.8206 31.6418 18.4082L31.887 18.0866C32.0504 18.3835 32.2792 18.6144 32.5734 18.7794C32.8839 18.9443 33.2353 19.0268 33.6275 19.0268C34.363 19.0268 34.9431 18.7794 35.3681 18.2845C35.793 17.7732 36.0953 17.0639 36.2751 16.1567C36.4712 15.233 36.5693 14.1361 36.5693 12.866C36.5693 11.4474 36.4794 10.334 36.2996 9.52577C36.1198 8.71753 35.8747 8.14021 35.5642 7.79382C35.2537 7.44742 34.8778 7.27423 34.4365 7.27423C33.8482 7.27423 33.3088 7.50516 32.8185 7.96701C32.3446 8.42887 32.0749 9.08866 32.0096 9.94639L31.887 9.08041C32.1812 8.14021 32.6796 7.43093 33.3824 6.95258C34.1015 6.45773 34.935 6.21031 35.8829 6.21031Z" fill="#1F1951"/>
<path d="M53.009 6.28454V16.6515C53.009 17.3938 53.1234 17.9464 53.3522 18.3093C53.581 18.6557 53.9896 18.8289 54.5779 18.8289V19.3485C54.0713 19.299 53.5647 19.2742 53.058 19.2742C52.3716 19.2742 51.7342 19.299 51.1459 19.3485C50.5575 19.3979 50.0019 19.4887 49.4789 19.6206V17.3938C49.0867 18.2186 48.5392 18.8124 47.8364 19.1753C47.15 19.5217 46.3819 19.6948 45.5321 19.6948C44.8456 19.6948 44.29 19.6041 43.8651 19.4227C43.4401 19.2412 43.1051 19.0103 42.86 18.7299C42.5821 18.4165 42.386 18.0041 42.2716 17.4928C42.1572 16.9814 42.1 16.3216 42.1 15.5134V9.25361C42.1 8.51134 41.9856 7.96701 41.7568 7.62062C41.5443 7.25773 41.1358 7.07629 40.5311 7.07629V6.5567C41.0541 6.60619 41.5607 6.63093 42.051 6.63093C42.7374 6.63093 43.3748 6.60619 43.9631 6.5567C44.5678 6.49072 45.1235 6.4 45.6301 6.28454V16.5278C45.6301 16.9402 45.6628 17.3031 45.7282 17.6165C45.8099 17.9299 45.957 18.1773 46.1694 18.3588C46.3819 18.5237 46.6924 18.6062 47.101 18.6062C47.5422 18.6062 47.9345 18.4825 48.2777 18.2351C48.6372 17.9876 48.9232 17.6495 49.1357 17.2206C49.3645 16.7753 49.4789 16.2804 49.4789 15.7361V9.25361C49.4789 8.51134 49.3645 7.96701 49.1357 7.62062C48.9232 7.25773 48.5147 7.07629 47.91 7.07629V6.5567C48.4329 6.60619 48.9396 6.63093 49.4299 6.63093C50.1163 6.63093 50.7537 6.60619 51.342 6.5567C51.9467 6.49072 52.5024 6.4 53.009 6.28454Z" fill="#1F1951"/>
<path d="M63.1199 6.21031C63.6429 6.21031 64.0678 6.32577 64.3947 6.5567C64.7216 6.77113 64.9585 7.05155 65.1056 7.39794C65.2691 7.74433 65.3508 8.10722 65.3508 8.4866C65.3508 9.09691 65.171 9.6 64.8114 9.99588C64.4682 10.3753 64.0106 10.5649 63.4386 10.5649C62.8666 10.5649 62.4172 10.4247 62.0903 10.1443C61.7798 9.84742 61.6245 9.45979 61.6245 8.98144C61.6245 8.51959 61.7226 8.14021 61.9187 7.8433C62.1312 7.5299 62.3927 7.26598 62.7032 7.05155C62.4744 6.98557 62.2456 6.99381 62.0168 7.07629C61.7063 7.12577 61.4121 7.25773 61.1343 7.47217C60.8564 7.6701 60.6194 7.92577 60.4233 8.23918C60.2272 8.53608 60.072 8.86598 59.9576 9.22887C59.8432 9.57526 59.786 9.9134 59.786 10.2433V16.8C59.786 17.5918 59.9739 18.1278 60.3498 18.4082C60.742 18.6887 61.3222 18.8289 62.0903 18.8289V19.3485C61.7144 19.332 61.1669 19.3155 60.4478 19.299C59.7288 19.266 58.977 19.2495 58.1925 19.2495C57.5388 19.2495 56.8769 19.266 56.2068 19.299C55.5368 19.3155 55.0301 19.332 54.6869 19.3485V18.8289C55.2589 18.8289 55.6593 18.7052 55.8881 18.4577C56.1333 18.2103 56.2559 17.7402 56.2559 17.0474V9.25361C56.2559 8.51134 56.1414 7.96701 55.9126 7.62062C55.7002 7.25773 55.2916 7.07629 54.6869 7.07629V6.5567C55.2099 6.60619 55.7165 6.63093 56.2068 6.63093C56.8932 6.63093 57.5306 6.60619 58.119 6.5567C58.7237 6.49072 59.2793 6.4 59.786 6.28454V8.58557C59.9821 8.14021 60.2436 7.73608 60.5704 7.3732C60.8973 7.01031 61.2732 6.7299 61.6981 6.53196C62.123 6.31753 62.597 6.21031 63.1199 6.21031Z" fill="#1F1951"/>
<path d="M85.6663 1.83093V2.30103C85.1433 2.4165 84.5795 2.64742 83.9748 2.99382C83.3864 3.34021 82.7654 3.90103 82.1117 4.67629L77.5029 10.2186L78.9248 8.16495L84.7592 17.3443C84.9881 17.7237 85.2332 18.0289 85.4947 18.2598C85.7562 18.4907 86.0994 18.6887 86.5243 18.8536V19.3485C85.9523 19.3155 85.3149 19.299 84.6122 19.299C83.9094 19.2825 83.272 19.2742 82.7 19.2742C82.3568 19.2742 81.9401 19.2825 81.4498 19.299C80.9595 19.299 80.3384 19.3155 79.5867 19.3485V18.8536C80.2567 18.8206 80.6571 18.7299 80.7879 18.5814C80.935 18.4165 80.8778 18.1361 80.6163 17.7402L77.0617 11.9258C76.8329 11.5464 76.6286 11.266 76.4488 11.0845C76.269 10.8866 76.0892 10.7546 75.9095 10.6887C75.7297 10.6062 75.4927 10.5567 75.1986 10.5402V10.0206C75.9176 10.0041 76.555 9.80619 77.1107 9.4268C77.6827 9.04742 78.3037 8.4701 78.9738 7.69485L80.4202 5.93814C81.0412 5.19588 81.4008 4.56083 81.4988 4.03299C81.6132 3.48866 81.507 3.06804 81.1801 2.77114C80.8696 2.47423 80.3875 2.31753 79.7338 2.30103V1.83093C80.1423 1.84742 80.5264 1.86392 80.8859 1.88041C81.2618 1.88041 81.6459 1.88866 82.0381 1.90516C82.4467 1.90516 82.888 1.90516 83.3619 1.90516C83.8359 1.90516 84.2608 1.89691 84.6367 1.88041C85.0289 1.86392 85.3721 1.84742 85.6663 1.83093ZM77.1842 1.83093V2.32577C76.6613 2.34227 76.2609 2.40825 75.983 2.52371C75.7215 2.62268 75.5499 2.82062 75.4682 3.11753C75.3865 3.39794 75.3456 3.8433 75.3456 4.45361V16.7258C75.3456 17.3196 75.3865 17.7649 75.4682 18.0619C75.5663 18.3588 75.746 18.5567 76.0075 18.6557C76.269 18.7546 76.6613 18.8206 77.1842 18.8536V19.3485C76.743 19.3155 76.1873 19.299 75.5172 19.299C74.8472 19.2825 74.1689 19.2742 73.4825 19.2742C72.6981 19.2742 71.9545 19.2825 71.2517 19.299C70.5653 19.299 70.0178 19.3155 69.6092 19.3485V18.8536C70.1322 18.8206 70.5244 18.7546 70.7859 18.6557C71.0474 18.5567 71.219 18.3588 71.3007 18.0619C71.3988 17.7649 71.4478 17.3196 71.4478 16.7258V4.45361C71.4478 3.8433 71.3988 3.39794 71.3007 3.11753C71.219 2.82062 71.0392 2.62268 70.7614 2.52371C70.4999 2.40825 70.1159 2.34227 69.6092 2.32577V1.83093C70.0178 1.84742 70.5653 1.86392 71.2517 1.88041C71.9545 1.89691 72.6981 1.90516 73.4825 1.90516C74.1689 1.90516 74.8472 1.89691 75.5172 1.88041C76.1873 1.86392 76.743 1.84742 77.1842 1.83093Z" fill="#1F1951"/>
<path d="M97.8525 6.28454V16.6515C97.8525 17.3938 97.9669 17.9464 98.1957 18.3093C98.4245 18.6557 98.8331 18.8289 99.4215 18.8289V19.3485C98.9148 19.299 98.4082 19.2742 97.9016 19.2742C97.2152 19.2742 96.5778 19.299 95.9894 19.3485C95.4011 19.3979 94.8454 19.4887 94.3224 19.6206V17.3938C93.9302 18.2186 93.3827 18.8124 92.68 19.1753C91.9935 19.5217 91.2254 19.6948 90.3756 19.6948C89.6892 19.6948 89.1335 19.6041 88.7086 19.4227C88.2837 19.2412 87.9486 19.0103 87.7035 18.7299C87.4257 18.4165 87.2295 18.0041 87.1151 17.4928C87.0007 16.9814 86.9435 16.3216 86.9435 15.5134V9.25361C86.9435 8.51134 86.8291 7.96701 86.6003 7.62062C86.3879 7.25773 85.9793 7.07629 85.3746 7.07629V6.5567C85.8976 6.60619 86.4042 6.63093 86.8945 6.63093C87.5809 6.63093 88.2183 6.60619 88.8066 6.5567C89.4113 6.49072 89.967 6.4 90.4736 6.28454V16.5278C90.4736 16.9402 90.5063 17.3031 90.5717 17.6165C90.6534 17.9299 90.8005 18.1773 91.013 18.3588C91.2254 18.5237 91.5359 18.6062 91.9445 18.6062C92.3858 18.6062 92.778 18.4825 93.1212 18.2351C93.4808 17.9876 93.7668 17.6495 93.9792 17.2206C94.208 16.7753 94.3224 16.2804 94.3224 15.7361V9.25361C94.3224 8.51134 94.208 7.96701 93.9792 7.62062C93.7668 7.25773 93.3582 7.07629 92.7535 7.07629V6.5567C93.2765 6.60619 93.7831 6.63093 94.2734 6.63093C94.9598 6.63093 95.5972 6.60619 96.1855 6.5567C96.7902 6.49072 97.3459 6.4 97.8525 6.28454Z" fill="#1F1951"/>
<path d="M107.963 6.21031C108.486 6.21031 108.911 6.32577 109.238 6.5567C109.565 6.77113 109.802 7.05155 109.949 7.39794C110.113 7.74433 110.194 8.10722 110.194 8.4866C110.194 9.09691 110.015 9.6 109.655 9.99588C109.312 10.3753 108.854 10.5649 108.282 10.5649C107.71 10.5649 107.261 10.4247 106.934 10.1443C106.623 9.84742 106.468 9.45979 106.468 8.98144C106.468 8.51959 106.566 8.14021 106.762 7.8433C106.975 7.5299 107.236 7.26598 107.547 7.05155C107.318 6.98557 107.089 6.99381 106.86 7.07629C106.55 7.12577 106.256 7.25773 105.978 7.47217C105.7 7.6701 105.463 7.92577 105.267 8.23918C105.071 8.53608 104.915 8.86598 104.801 9.22887C104.687 9.57526 104.629 9.9134 104.629 10.2433V16.8C104.629 17.5918 104.817 18.1278 105.193 18.4082C105.586 18.6887 106.166 18.8289 106.934 18.8289V19.3485C106.558 19.332 106.01 19.3155 105.291 19.299C104.572 19.266 103.821 19.2495 103.036 19.2495C102.382 19.2495 101.72 19.266 101.05 19.299C100.38 19.3155 99.8737 19.332 99.5305 19.3485V18.8289C100.102 18.8289 100.503 18.7052 100.732 18.4577C100.977 18.2103 101.099 17.7402 101.099 17.0474V9.25361C101.099 8.51134 100.985 7.96701 100.756 7.62062C100.544 7.25773 100.135 7.07629 99.5305 7.07629V6.5567C100.053 6.60619 100.56 6.63093 101.05 6.63093C101.737 6.63093 102.374 6.60619 102.962 6.5567C103.567 6.49072 104.123 6.4 104.629 6.28454V8.58557C104.826 8.14021 105.087 7.73608 105.414 7.3732C105.741 7.01031 106.117 6.7299 106.542 6.53196C106.967 6.31753 107.44 6.21031 107.963 6.21031Z" fill="#1F1951"/>
<path d="M114.97 2.49897V6.5567H117.862V7.05155H114.97V17.0474C114.97 17.5423 115.06 17.8969 115.239 18.1113C115.419 18.3093 115.689 18.4082 116.048 18.4082C116.342 18.4082 116.637 18.301 116.931 18.0866C117.225 17.8557 117.487 17.468 117.715 16.9237L118.132 17.1464C117.871 17.8887 117.47 18.499 116.931 18.9773C116.408 19.4557 115.689 19.6948 114.774 19.6948C114.234 19.6948 113.76 19.6206 113.352 19.4722C112.943 19.3402 112.6 19.134 112.322 18.8536C111.963 18.4907 111.726 18.0454 111.611 17.5175C111.497 16.9732 111.44 16.2722 111.44 15.4144V7.05155H109.38V6.5567H111.44V3.29072C112.126 3.29072 112.755 3.23299 113.327 3.11753C113.916 2.98557 114.463 2.77938 114.97 2.49897Z" fill="#1F1951"/>
<path d="M120.818 0.173197C121.504 0.173197 122.044 0.346393 122.436 0.692785C122.844 1.02268 123.049 1.48454 123.049 2.07835C123.049 2.67217 122.844 3.14227 122.436 3.48866C122.044 3.81856 121.504 3.98351 120.818 3.98351C120.132 3.98351 119.584 3.81856 119.175 3.48866C118.783 3.14227 118.587 2.67217 118.587 2.07835C118.587 1.48454 118.783 1.02268 119.175 0.692785C119.584 0.346393 120.132 0.173197 120.818 0.173197ZM122.73 6.28454V17.0474C122.73 17.7402 122.844 18.2103 123.073 18.4577C123.318 18.7052 123.727 18.8289 124.299 18.8289V19.3485C124.005 19.332 123.547 19.3155 122.926 19.299C122.305 19.266 121.676 19.2495 121.039 19.2495C120.401 19.2495 119.756 19.266 119.102 19.299C118.448 19.3155 117.958 19.332 117.631 19.3485V18.8289C118.203 18.8289 118.603 18.7052 118.832 18.4577C119.077 18.2103 119.2 17.7402 119.2 17.0474V9.25361C119.2 8.51134 119.086 7.96701 118.857 7.62062C118.644 7.25773 118.236 7.07629 117.631 7.07629V6.5567C118.154 6.60619 118.661 6.63093 119.151 6.63093C119.837 6.63093 120.475 6.60619 121.063 6.5567C121.668 6.49072 122.223 6.4 122.73 6.28454Z" fill="#1F1951"/>
<path d="M138.464 1.48454C139.576 1.48454 140.483 1.64124 141.185 1.95464C141.888 2.26804 142.517 2.64742 143.073 3.09278C143.269 3.24124 143.433 3.31547 143.563 3.31547C143.874 3.31547 144.078 2.82062 144.176 1.83093H144.74C144.707 2.47423 144.683 3.25773 144.666 4.18144C144.65 5.08866 144.642 6.30103 144.642 7.81856H144.078C143.964 6.82887 143.784 5.97113 143.539 5.24536C143.31 4.50309 142.877 3.86804 142.24 3.34021C141.847 2.96083 141.357 2.66392 140.769 2.44949C140.197 2.23505 139.616 2.12784 139.028 2.12784C138.129 2.12784 137.361 2.36701 136.724 2.84536C136.086 3.30722 135.563 3.94227 135.155 4.75052C134.746 5.55876 134.444 6.47423 134.248 7.49691C134.052 8.50309 133.954 9.55052 133.954 10.6392C133.954 13.6082 134.354 15.7773 135.155 17.1464C135.972 18.5155 137.14 19.2 138.66 19.2C139.053 19.2 139.396 19.1505 139.69 19.0515C139.984 18.9526 140.221 18.8371 140.401 18.7052C140.63 18.5402 140.785 18.367 140.867 18.1856C140.948 17.9876 140.989 17.732 140.989 17.4186V14.9938C140.989 14.2351 140.924 13.6742 140.793 13.3113C140.679 12.932 140.442 12.6763 140.082 12.5443C139.723 12.4124 139.2 12.3381 138.513 12.3217V11.8268C138.856 11.8433 139.265 11.8598 139.739 11.8763C140.229 11.8763 140.736 11.8845 141.259 11.901C141.782 11.901 142.264 11.901 142.705 11.901C143.392 11.901 144.021 11.8928 144.593 11.8763C145.165 11.8598 145.631 11.8433 145.99 11.8268V12.3217C145.68 12.3381 145.443 12.3959 145.279 12.4948C145.132 12.5938 145.026 12.7918 144.961 13.0887C144.912 13.3856 144.887 13.8392 144.887 14.4495V19.3485H144.397C144.38 19.068 144.315 18.7629 144.201 18.433C144.103 18.1031 143.931 17.9381 143.686 17.9381C143.571 17.9381 143.416 17.9711 143.22 18.0371C143.04 18.0866 142.754 18.2268 142.362 18.4577C141.757 18.8041 141.12 19.101 140.45 19.3485C139.78 19.5794 139.077 19.6948 138.342 19.6948C136.446 19.6948 134.844 19.3402 133.537 18.6309C132.229 17.9216 131.241 16.9072 130.571 15.5876C129.917 14.2515 129.59 12.6515 129.59 10.7876C129.59 8.90722 129.966 7.27423 130.718 5.88866C131.486 4.50309 132.532 3.42268 133.855 2.64742C135.196 1.87217 136.732 1.48454 138.464 1.48454Z" fill="#1F1951"/>
<path d="M151.099 0V8.51134C151.508 7.65361 152.055 7.05979 152.742 6.7299C153.444 6.38351 154.229 6.21031 155.095 6.21031C155.798 6.21031 156.361 6.30103 156.786 6.48247C157.211 6.64742 157.546 6.87835 157.792 7.17526C158.069 7.48866 158.265 7.89278 158.38 8.38763C158.511 8.88247 158.576 9.55052 158.576 10.3918V17.0474C158.576 17.7402 158.69 18.2103 158.919 18.4577C159.164 18.7052 159.573 18.8289 160.145 18.8289V19.3485C159.834 19.332 159.36 19.3155 158.723 19.299C158.102 19.266 157.497 19.2495 156.909 19.2495C156.272 19.2495 155.651 19.266 155.046 19.299C154.458 19.3155 154.016 19.332 153.722 19.3485V18.8289C154.212 18.8289 154.556 18.7052 154.752 18.4577C154.948 18.2103 155.046 17.7402 155.046 17.0474V9.35258C155.046 8.94021 155.005 8.58557 154.923 8.28866C154.842 7.97526 154.686 7.73608 154.458 7.57114C154.245 7.38969 153.935 7.29897 153.526 7.29897C153.085 7.29897 152.676 7.42268 152.3 7.6701C151.941 7.90103 151.647 8.23093 151.418 8.65979C151.205 9.08866 151.099 9.58351 151.099 10.1443V17.0474C151.099 17.7402 151.197 18.2103 151.393 18.4577C151.589 18.7052 151.933 18.8289 152.423 18.8289V19.3485C152.129 19.332 151.696 19.3155 151.124 19.299C150.552 19.266 149.971 19.2495 149.383 19.2495C148.746 19.2495 148.1 19.266 147.446 19.299C146.809 19.3155 146.327 19.332 146 19.3485V18.8289C146.572 18.8289 146.972 18.7052 147.201 18.4577C147.446 18.2103 147.569 17.7402 147.569 17.0474V2.96907C147.569 2.2268 147.455 1.68247 147.226 1.33608C147.013 0.973196 146.605 0.791753 146 0.791753V0.272166C146.523 0.321651 147.03 0.346393 147.52 0.346393C148.19 0.346393 148.827 0.321651 149.432 0.272166C150.037 0.206186 150.592 0.115464 151.099 0Z" fill="#1F1951"/>
<path d="M163.44 19.5217C162.704 19.5217 162.091 19.3814 161.601 19.101C161.111 18.8206 160.751 18.4495 160.522 17.9876C160.294 17.5093 160.179 16.9897 160.179 16.4289C160.179 15.7196 160.334 15.1423 160.645 14.6969C160.972 14.2515 161.389 13.8887 161.895 13.6082C162.402 13.3278 162.933 13.0969 163.489 12.9155C164.061 12.734 164.6 12.5608 165.107 12.3959C165.63 12.2144 166.046 12.0082 166.357 11.7773C166.684 11.5299 166.847 11.2165 166.847 10.8371V8.90722C166.847 8.47835 166.774 8.09897 166.627 7.76907C166.496 7.42268 166.283 7.15876 165.989 6.97732C165.711 6.79588 165.344 6.70515 164.886 6.70515C164.559 6.70515 164.232 6.75464 163.905 6.85361C163.579 6.93608 163.309 7.08454 163.096 7.29897C163.554 7.46392 163.905 7.71959 164.151 8.06598C164.412 8.39588 164.543 8.77526 164.543 9.20412C164.543 9.76495 164.347 10.2103 163.954 10.5402C163.579 10.8701 163.129 11.0351 162.606 11.0351C162.018 11.0351 161.568 10.8536 161.258 10.4907C160.964 10.1113 160.817 9.65773 160.817 9.1299C160.817 8.65155 160.931 8.25567 161.16 7.94227C161.405 7.62887 161.74 7.33196 162.165 7.05155C162.622 6.78763 163.17 6.58144 163.807 6.43299C164.461 6.28454 165.164 6.21031 165.916 6.21031C166.667 6.21031 167.346 6.29278 167.95 6.45773C168.555 6.60619 169.062 6.8866 169.47 7.29897C169.846 7.67835 170.091 8.14845 170.206 8.70928C170.32 9.25361 170.377 9.94639 170.377 10.7876V17.5175C170.377 17.9299 170.418 18.2186 170.5 18.3835C170.582 18.532 170.72 18.6062 170.917 18.6062C171.064 18.6062 171.203 18.5649 171.333 18.4825C171.48 18.4 171.636 18.301 171.799 18.1856L172.044 18.6062C171.701 18.9031 171.301 19.134 170.843 19.299C170.402 19.4474 169.903 19.5217 169.348 19.5217C168.743 19.5217 168.261 19.4392 167.901 19.2742C167.542 19.0928 167.28 18.8536 167.117 18.5567C166.97 18.2598 166.896 17.9134 166.896 17.5175C166.504 18.1443 166.03 18.6392 165.474 19.0021C164.919 19.3485 164.24 19.5217 163.44 19.5217ZM165.18 17.9381C165.507 17.9381 165.801 17.8639 166.063 17.7155C166.341 17.5505 166.602 17.2866 166.847 16.9237V11.8515C166.7 12.099 166.496 12.3216 166.234 12.5196C165.973 12.7175 165.695 12.9237 165.401 13.1381C165.107 13.3361 164.821 13.5588 164.543 13.8062C164.281 14.0536 164.069 14.3588 163.905 14.7217C163.742 15.0845 163.66 15.5216 163.66 16.033C163.66 16.6763 163.799 17.1546 164.077 17.468C164.355 17.7814 164.723 17.9381 165.18 17.9381Z" fill="#1F1951"/>
<path d="M180.197 6.21031C180.72 6.21031 181.145 6.32577 181.472 6.5567C181.799 6.77113 182.036 7.05155 182.183 7.39794C182.346 7.74433 182.428 8.10722 182.428 8.4866C182.428 9.09691 182.248 9.6 181.889 9.99588C181.546 10.3753 181.088 10.5649 180.516 10.5649C179.944 10.5649 179.495 10.4247 179.168 10.1443C178.857 9.84742 178.702 9.45979 178.702 8.98144C178.702 8.51959 178.8 8.14021 178.996 7.8433C179.209 7.5299 179.47 7.26598 179.781 7.05155C179.552 6.98557 179.323 6.99381 179.094 7.07629C178.784 7.12577 178.489 7.25773 178.212 7.47217C177.934 7.6701 177.697 7.92577 177.501 8.23918C177.305 8.53608 177.149 8.86598 177.035 9.22887C176.921 9.57526 176.863 9.9134 176.863 10.2433V16.8C176.863 17.5918 177.051 18.1278 177.427 18.4082C177.819 18.6887 178.4 18.8289 179.168 18.8289V19.3485C178.792 19.332 178.244 19.3155 177.525 19.299C176.806 19.266 176.054 19.2495 175.27 19.2495C174.616 19.2495 173.954 19.266 173.284 19.299C172.614 19.3155 172.107 19.332 171.764 19.3485V18.8289C172.336 18.8289 172.737 18.7052 172.965 18.4577C173.211 18.2103 173.333 17.7402 173.333 17.0474V9.25361C173.333 8.51134 173.219 7.96701 172.99 7.62062C172.778 7.25773 172.369 7.07629 171.764 7.07629V6.5567C172.287 6.60619 172.794 6.63093 173.284 6.63093C173.971 6.63093 174.608 6.60619 175.196 6.5567C175.801 6.49072 176.357 6.4 176.863 6.28454V8.58557C177.059 8.14021 177.321 7.73608 177.648 7.3732C177.975 7.01031 178.351 6.7299 178.775 6.53196C179.2 6.31753 179.674 6.21031 180.197 6.21031Z" fill="#1F1951"/>
<path d="M185.61 19.5217C184.875 19.5217 184.262 19.3814 183.771 19.101C183.281 18.8206 182.922 18.4495 182.693 17.9876C182.464 17.5093 182.35 16.9897 182.35 16.4289C182.35 15.7196 182.505 15.1423 182.815 14.6969C183.142 14.2515 183.559 13.8887 184.066 13.6082C184.572 13.3278 185.103 13.0969 185.659 12.9155C186.231 12.734 186.77 12.5608 187.277 12.3959C187.8 12.2144 188.217 12.0082 188.527 11.7773C188.854 11.5299 189.018 11.2165 189.018 10.8371V8.90722C189.018 8.47835 188.944 8.09897 188.797 7.76907C188.666 7.42268 188.454 7.15876 188.16 6.97732C187.882 6.79588 187.514 6.70515 187.056 6.70515C186.73 6.70515 186.403 6.75464 186.076 6.85361C185.749 6.93608 185.479 7.08454 185.267 7.29897C185.724 7.46392 186.076 7.71959 186.321 8.06598C186.582 8.39588 186.713 8.77526 186.713 9.20412C186.713 9.76495 186.517 10.2103 186.125 10.5402C185.749 10.8701 185.3 11.0351 184.777 11.0351C184.188 11.0351 183.739 10.8536 183.428 10.4907C183.134 10.1113 182.987 9.65773 182.987 9.1299C182.987 8.65155 183.101 8.25567 183.33 7.94227C183.575 7.62887 183.91 7.33196 184.335 7.05155C184.793 6.78763 185.34 6.58144 185.978 6.43299C186.631 6.28454 187.334 6.21031 188.086 6.21031C188.838 6.21031 189.516 6.29278 190.121 6.45773C190.725 6.60619 191.232 6.8866 191.641 7.29897C192.017 7.67835 192.262 8.14845 192.376 8.70928C192.49 9.25361 192.548 9.94639 192.548 10.7876V17.5175C192.548 17.9299 192.589 18.2186 192.67 18.3835C192.752 18.532 192.891 18.6062 193.087 18.6062C193.234 18.6062 193.373 18.5649 193.504 18.4825C193.651 18.4 193.806 18.301 193.97 18.1856L194.215 18.6062C193.871 18.9031 193.471 19.134 193.013 19.299C192.572 19.4474 192.074 19.5217 191.518 19.5217C190.913 19.5217 190.431 19.4392 190.072 19.2742C189.712 19.0928 189.451 18.8536 189.287 18.5567C189.14 18.2598 189.067 17.9134 189.067 17.5175C188.674 18.1443 188.2 18.6392 187.645 19.0021C187.089 19.3485 186.411 19.5217 185.61 19.5217ZM187.351 17.9381C187.677 17.9381 187.972 17.8639 188.233 17.7155C188.511 17.5505 188.772 17.2866 189.018 16.9237V11.8515C188.87 12.099 188.666 12.3216 188.405 12.5196C188.143 12.7175 187.865 12.9237 187.571 13.1381C187.277 13.3361 186.991 13.5588 186.713 13.8062C186.452 14.0536 186.239 14.3588 186.076 14.7217C185.912 15.0845 185.831 15.5216 185.831 16.033C185.831 16.6763 185.97 17.1546 186.247 17.468C186.525 17.7814 186.893 17.9381 187.351 17.9381Z" fill="#1F1951"/>
<path d="M203.054 6.21031C203.741 6.21031 204.296 6.30103 204.721 6.48247C205.162 6.64742 205.506 6.87835 205.751 7.17526C206.012 7.48866 206.2 7.89278 206.315 8.38763C206.445 8.88247 206.511 9.55052 206.511 10.3918V17.0474C206.511 17.7402 206.625 18.2103 206.854 18.4577C207.099 18.7052 207.508 18.8289 208.08 18.8289V19.3485C207.769 19.332 207.303 19.3155 206.682 19.299C206.061 19.266 205.448 19.2495 204.844 19.2495C204.223 19.2495 203.61 19.266 203.005 19.299C202.417 19.3155 201.967 19.332 201.657 19.3485V18.8289C202.147 18.8289 202.49 18.7052 202.686 18.4577C202.882 18.2103 202.981 17.7402 202.981 17.0474V9.35258C202.981 8.94021 202.94 8.58557 202.858 8.28866C202.776 7.97526 202.629 7.73608 202.417 7.57114C202.204 7.38969 201.886 7.29897 201.461 7.29897C201.019 7.29897 200.611 7.42268 200.235 7.6701C199.875 7.91753 199.581 8.26392 199.352 8.70928C199.14 9.13814 199.034 9.62474 199.034 10.1691V17.0474C199.034 17.7402 199.132 18.2103 199.328 18.4577C199.54 18.7052 199.884 18.8289 200.357 18.8289V19.3485C200.063 19.332 199.63 19.3155 199.058 19.299C198.503 19.266 197.922 19.2495 197.318 19.2495C196.697 19.2495 196.059 19.266 195.406 19.299C194.752 19.3155 194.262 19.332 193.935 19.3485V18.8289C194.507 18.8289 194.907 18.7052 195.136 18.4577C195.381 18.2103 195.504 17.7402 195.504 17.0474V9.25361C195.504 8.51134 195.389 7.96701 195.16 7.62062C194.948 7.25773 194.539 7.07629 193.935 7.07629V6.5567C194.458 6.60619 194.964 6.63093 195.455 6.63093C196.141 6.63093 196.778 6.60619 197.367 6.5567C197.971 6.49072 198.527 6.4 199.034 6.28454V8.51134C199.442 7.6701 199.998 7.07629 200.701 6.7299C201.403 6.38351 202.188 6.21031 203.054 6.21031Z" fill="#1F1951"/>
<path d="M211.395 19.5217C210.66 19.5217 210.047 19.3814 209.557 19.101C209.066 18.8206 208.707 18.4495 208.478 17.9876C208.249 17.5093 208.135 16.9897 208.135 16.4289C208.135 15.7196 208.29 15.1423 208.601 14.6969C208.928 14.2515 209.344 13.8887 209.851 13.6082C210.358 13.3278 210.889 13.0969 211.444 12.9155C212.016 12.734 212.556 12.5608 213.062 12.3959C213.585 12.2144 214.002 12.0082 214.313 11.7773C214.639 11.5299 214.803 11.2165 214.803 10.8371V8.90722C214.803 8.47835 214.729 8.09897 214.582 7.76907C214.452 7.42268 214.239 7.15876 213.945 6.97732C213.667 6.79588 213.299 6.70515 212.842 6.70515C212.515 6.70515 212.188 6.75464 211.861 6.85361C211.534 6.93608 211.265 7.08454 211.052 7.29897C211.51 7.46392 211.861 7.71959 212.106 8.06598C212.368 8.39588 212.499 8.77526 212.499 9.20412C212.499 9.76495 212.302 10.2103 211.91 10.5402C211.534 10.8701 211.085 11.0351 210.562 11.0351C209.974 11.0351 209.524 10.8536 209.214 10.4907C208.919 10.1113 208.772 9.65773 208.772 9.1299C208.772 8.65155 208.887 8.25567 209.116 7.94227C209.361 7.62887 209.696 7.33196 210.121 7.05155C210.578 6.78763 211.126 6.58144 211.763 6.43299C212.417 6.28454 213.12 6.21031 213.871 6.21031C214.623 6.21031 215.301 6.29278 215.906 6.45773C216.511 6.60619 217.017 6.8866 217.426 7.29897C217.802 7.67835 218.047 8.14845 218.161 8.70928C218.276 9.25361 218.333 9.94639 218.333 10.7876V17.5175C218.333 17.9299 218.374 18.2186 218.456 18.3835C218.537 18.532 218.676 18.6062 218.872 18.6062C219.019 18.6062 219.158 18.5649 219.289 18.4825C219.436 18.4 219.591 18.301 219.755 18.1856L220 18.6062C219.657 18.9031 219.256 19.134 218.799 19.299C218.358 19.4474 217.859 19.5217 217.303 19.5217C216.699 19.5217 216.217 19.4392 215.857 19.2742C215.497 19.0928 215.236 18.8536 215.073 18.5567C214.925 18.2598 214.852 17.9134 214.852 17.5175C214.46 18.1443 213.986 18.6392 213.43 19.0021C212.874 19.3485 212.196 19.5217 211.395 19.5217ZM213.136 17.9381C213.463 17.9381 213.757 17.8639 214.018 17.7155C214.296 17.5505 214.558 17.2866 214.803 16.9237V11.8515C214.656 12.099 214.452 12.3216 214.19 12.5196C213.929 12.7175 213.651 12.9237 213.357 13.1381C213.062 13.3361 212.776 13.5588 212.499 13.8062C212.237 14.0536 212.025 14.3588 211.861 14.7217C211.698 15.0845 211.616 15.5216 211.616 16.033C211.616 16.6763 211.755 17.1546 212.033 17.468C212.311 17.7814 212.678 17.9381 213.136 17.9381Z" fill="#1F1951"/>
</svg>
