<svg width="167" height="50" viewBox="0 0 167 50" fill="none" xmlns="http://www.w3.org/2000/svg">
<path d="M103.396 39.1014C93.7112 46.2081 79.673 49.9998 67.5864 49.9998C50.639 49.9998 35.3819 43.7598 23.8394 33.3813C22.9326 32.5652 23.7451 31.453 24.8333 32.0885C37.29 39.3036 52.6921 43.6442 68.6021 43.6442C79.332 43.6442 91.1357 41.4342 101.989 36.848C103.629 36.1547 105 37.9169 103.396 39.1014Z" fill="#FF9900"/>
<path d="M107.423 34.5155C106.19 32.9411 99.2397 33.7716 96.1201 34.14C95.1697 34.2555 95.0246 33.4322 95.8807 32.84C101.416 28.9616 110.499 30.081 111.559 31.3811C112.618 32.6883 111.283 41.7523 106.081 46.0784C105.283 46.7429 104.521 46.389 104.877 45.5079C106.045 42.6045 108.664 36.0972 107.423 34.5155Z" fill="#FF9900"/>
<path d="M96.338 5.45971V1.68967C96.338 1.11911 96.7733 0.736328 97.2957 0.736328H114.25C114.794 0.736328 115.23 1.12633 115.23 1.68967V4.91804C115.223 5.45971 114.765 6.1675 113.953 7.28695L105.167 19.7743C108.432 19.6949 111.878 20.1788 114.838 21.8399C115.505 22.2154 115.687 22.7643 115.738 23.306V27.3288C115.738 27.8777 115.128 28.5205 114.49 28.1883C109.273 25.4655 102.345 25.1694 96.5774 28.2172C95.9898 28.535 95.3731 27.8994 95.3731 27.3505V23.5299C95.3731 22.916 95.3804 21.8688 95.9971 20.9371L106.176 6.40583H97.3175C96.7733 6.40583 96.338 6.02306 96.338 5.45971Z" fill="#221F1F"/>
<path d="M34.4899 28.9832H29.3316C28.8383 28.9471 28.4466 28.5788 28.4103 28.1093V1.75517C28.4103 1.22794 28.8528 0.809048 29.4042 0.809048H34.2142C34.7148 0.830701 35.1138 1.2135 35.1501 1.69017V5.13521H35.2444C36.4995 1.80572 38.8573 0.25293 42.035 0.25293C45.2634 0.25293 47.2802 1.80572 48.7312 5.13521C49.979 1.80572 52.8157 0.25293 55.8555 0.25293C58.0175 0.25293 60.3826 1.14127 61.8263 3.13463C63.4586 5.35187 63.1249 8.57302 63.1249 11.3969L63.1176 28.0299C63.1176 28.5571 62.6751 28.9832 62.1237 28.9832H56.9728C56.4577 28.9471 56.0441 28.5355 56.0441 28.0299V14.062C56.0441 12.9497 56.1457 10.1764 55.899 9.12191C55.5145 7.35246 54.361 6.85411 52.8665 6.85411C51.6187 6.85411 50.3128 7.68468 49.7832 9.01358C49.2536 10.3425 49.3043 12.5669 49.3043 14.062V28.0299C49.3043 28.5571 48.8618 28.9832 48.3104 28.9832H43.1595C42.6371 28.9471 42.2308 28.5355 42.2308 28.0299L42.2236 14.062C42.2236 11.1225 42.7097 6.79633 39.0459 6.79633C35.3387 6.79633 35.4838 11.0142 35.4838 14.062V28.0299C35.4838 28.5571 35.0412 28.9832 34.4899 28.9832Z" fill="#221F1F"/>
<path d="M129.826 0.25293C137.48 0.25293 141.623 6.79633 141.623 15.1164C141.623 23.1548 137.045 29.5321 129.826 29.5321C122.31 29.5321 118.219 22.9887 118.219 14.8348C118.219 6.63022 122.361 0.25293 129.826 0.25293ZM129.87 5.63355C126.068 5.63355 125.829 10.7903 125.829 14.0042C125.829 17.2253 125.778 24.101 129.826 24.101C133.824 24.101 134.013 18.5542 134.013 15.1742C134.013 12.9497 133.918 10.2919 133.244 8.18301C132.663 6.34856 131.51 5.63355 129.87 5.63355Z" fill="#221F1F"/>
<path d="M151.548 28.9832H146.411C145.896 28.9471 145.482 28.5355 145.482 28.0299L145.475 1.6685C145.519 1.18461 145.947 0.809048 146.469 0.809048H151.25C151.7 0.830701 152.07 1.13405 152.171 1.54572V5.57576H152.266C153.71 1.97184 155.734 0.25293 159.296 0.25293C161.61 0.25293 163.866 1.0835 165.317 3.35852C166.667 5.46743 166.667 9.01358 166.667 11.5631V28.1527C166.609 28.6149 166.181 28.9832 165.673 28.9832H160.5C160.029 28.9471 159.637 28.6005 159.586 28.1527V13.8381C159.586 10.9564 159.92 6.73855 156.358 6.73855C155.102 6.73855 153.949 7.57635 153.376 8.84747C152.65 10.458 152.556 12.0614 152.556 13.8381V28.0299C152.549 28.5571 152.099 28.9832 151.548 28.9832Z" fill="#221F1F"/>
<path d="M82.8215 16.3946V15.2824C79.0924 15.2824 75.153 16.0768 75.153 20.4536C75.153 22.6708 76.3066 24.173 78.2871 24.173C79.7381 24.173 81.0367 23.2847 81.8566 21.8402C82.8722 20.0636 82.8215 18.3952 82.8215 16.3946ZM88.0232 28.9109C87.6822 29.2142 87.1889 29.2359 86.8044 29.0337C85.0922 27.6181 84.7875 26.9609 83.8444 25.6103C81.015 28.4848 79.0126 29.3442 75.3417 29.3442C71.0032 29.3442 67.6225 26.6792 67.6225 21.3419C67.6225 17.1746 69.8932 14.3363 73.1217 12.9496C75.9221 11.7218 79.8324 11.5051 82.8215 11.1657V10.5012C82.8215 9.28065 82.9158 7.8362 82.1975 6.78174C81.5664 5.83562 80.362 5.44562 79.3028 5.44562C77.3368 5.44562 75.5811 6.44951 75.153 8.52954C75.066 8.99177 74.725 9.44677 74.2607 9.46844L69.2548 8.93398C68.834 8.8401 68.3697 8.50065 68.4858 7.85787C69.6393 1.82002 75.1168 0 80.0211 0C82.5313 0 85.8105 0.664452 87.791 2.55669C90.3012 4.8895 90.0618 8.00231 90.0618 11.3896V19.3919C90.0618 21.7969 91.063 22.8514 92.0061 24.1514C92.3399 24.6136 92.4124 25.1697 91.9916 25.5164C90.9397 26.3903 89.0679 28.0153 88.0377 28.9253L88.0232 28.9109Z" fill="#221F1F"/>
<path d="M15.199 16.3946V15.2824C11.47 15.2824 7.53057 16.0768 7.53057 20.4536C7.53057 22.6708 8.68409 24.173 10.6647 24.173C12.1157 24.173 13.4143 23.2847 14.2341 21.8402C15.2498 20.0636 15.199 18.3952 15.199 16.3946ZM20.4007 28.9109C20.0598 29.2142 19.5664 29.2359 19.1819 29.0337C17.4698 27.6181 17.1651 26.9609 16.2219 25.6103C13.3925 28.4848 11.3902 29.3442 7.71919 29.3442C3.38077 29.3442 0 26.6792 0 21.3419C0 17.1746 2.27078 14.3363 5.4992 12.9496C8.29959 11.7218 12.21 11.5051 15.199 11.1657V10.5012C15.199 9.28065 15.2933 7.8362 14.5751 6.78174C13.9439 5.83562 12.7396 5.44562 11.6804 5.44562C9.71429 5.44562 7.95861 6.44951 7.53057 8.52954C7.44351 8.99177 7.10253 9.44677 6.63822 9.46844L1.63235 8.93398C1.21157 8.8401 0.747252 8.50065 0.86333 7.85787C2.01686 1.82002 7.49429 0 12.3986 0C14.9088 0 18.188 0.664452 20.1686 2.55669C22.6788 4.8895 22.4394 8.00231 22.4394 11.3896V19.3919C22.4394 21.7969 23.4405 22.8514 24.3837 24.1514C24.7174 24.6136 24.7899 25.1697 24.3692 25.5164C23.3172 26.3903 21.4454 28.0153 20.4152 28.9253L20.4007 28.9109Z" fill="#221F1F"/>
</svg>
